<svg width="311" height="337" viewBox="0 0 311 337" fill="none" xmlns="http://www.w3.org/2000/svg">
<rect x="17.5" y="97.5" width="276" height="222" stroke="#2F2F2F" stroke-width="35" stroke-linejoin="round"/>
<path d="M114.5 71.5001C114.5 58.7929 119.452 50.3004 126.403 44.6458C133.785 38.6406 144.361 35.1632 155.713 35.1874C167.064 35.2115 177.671 38.7347 185.086 44.777C192.077 50.4744 197 58.9556 197 71.5H232C232 48.2944 222.235 29.9005 207.196 17.6448C192.579 5.73388 173.811 0.225811 155.787 0.187458C137.764 0.149105 118.965 5.57801 104.316 17.4948C89.236 29.762 79.5 48.2072 79.5 71.5001H114.5ZM79.5 71.5001V139H114.5V71.5001H79.5ZM197 71.5V139H232V71.5H197Z" fill="#2F2F2F"/>
</svg>
